<?xml version="1.0" standalone="no"?>
<!DOCTYPE svg PUBLIC "-//W3C//DTD SVG 20010904//EN"
 "http://www.w3.org/TR/2001/REC-SVG-20010904/DTD/svg10.dtd">
<svg version="1.0" xmlns="http://www.w3.org/2000/svg"
 width="640.000000pt" height="640.000000pt" viewBox="0 0 640.000000 640.000000"
 preserveAspectRatio="xMidYMid meet">
<metadata>
Created by potrace 1.14, written by Peter Selinger 2001-2017
</metadata>
<g transform="translate(0.000000,640.000000) scale(0.100000,-0.100000)"
fill="#000000" stroke="none">
<path d="M2495 5833 c-79 -8 -209 -35 -289 -59 -98 -31 -277 -117 -366 -176
-92 -60 -218 -191 -258 -266 -42 -79 -44 -118 -9 -144 23 -16 27 -27 27 -66 0
-26 3 -58 7 -71 5 -20 10 -22 41 -18 33 6 34 5 28 -21 -13 -61 -18 -191 -8
-242 33 -173 108 -266 231 -286 35 -6 45 -13 73 -57 18 -28 42 -71 53 -96 32
-73 41 -85 59 -78 10 4 16 18 16 37 0 38 23 40 47 4 13 -21 19 -59 24 -173 7
-158 17 -201 54 -225 32 -21 41 -20 65 4 30 30 27 148 -5 265 -35 127 -34 171
9 221 52 61 116 90 235 109 136 22 202 46 334 123 l58 33 28 -29 c15 -17 47
-35 71 -42 38 -10 46 -9 69 8 27 20 38 48 40 100 1 21 6 32 15 32 29 0 112 94
134 152 31 82 26 222 -13 343 -15 50 -36 101 -46 114 -11 13 -19 28 -19 33 0
6 -20 39 -45 75 -25 35 -45 69 -45 76 -1 30 -42 98 -93 153 -63 69 -162 124
-262 148 -66 16 -197 26 -260 19z m12 -68 c19 -8 45 -15 57 -15 62 0 136 -40
136 -74 0 -24 -50 -75 -94 -98 -56 -29 -155 -52 -325 -78 -79 -12 -154 -25
-168 -31 -94 -36 -136 25 -68 100 47 52 216 132 283 134 6 0 12 12 12 27 0 14
5 31 12 38 17 17 112 15 155 -3z m348 -15 c59 -20 125 -63 125 -81 0 -6 -10
-8 -22 -4 -42 12 -188 86 -188 95 0 15 21 12 85 -10z m8 -171 c68 -34 146 -97
153 -123 8 -33 -9 -60 -50 -80 -58 -28 -78 -21 -150 47 -62 60 -66 66 -66 108
0 73 34 87 113 48z m-261 -161 c32 -6 66 -17 75 -24 16 -12 14 -13 -17 -14
-47 0 -153 -26 -220 -52 -30 -12 -118 -61 -194 -110 -76 -48 -143 -88 -147
-88 -18 0 -8 47 14 67 12 12 52 34 88 51 64 28 88 50 121 110 40 74 119 91
280 60z m224 -65 c45 -69 106 -192 101 -206 -8 -26 -147 203 -147 244 0 10 2
19 4 19 2 0 21 -25 42 -57z m-49 -63 c33 -20 50 -57 39 -85 -10 -27 -75 -48
-126 -41 -77 10 -116 80 -70 126 27 27 113 28 157 0z m-732 -287 c21 -65 49
-140 62 -168 47 -102 22 -113 -56 -24 -38 43 -57 75 -67 112 -22 82 -16 197
10 197 7 0 30 -53 51 -117z m-238 -15 c-3 -8 -6 -5 -6 6 -1 11 2 17 5 13 3 -3
4 -12 1 -19z m1246 -108 c15 -31 27 -70 27 -92 0 -67 -29 -44 -60 47 -38 112
-17 142 33 45z m-626 -206 c-3 -3 -12 -4 -19 -1 -8 3 -5 6 6 6 11 1 17 -2 13
-5z m-221 -135 c3 -6 -5 -22 -20 -36 -34 -31 -91 -30 -91 2 0 15 11 23 45 32
58 15 58 15 66 2z m14 -43 c0 -2 -7 -7 -16 -10 -8 -3 -12 -2 -9 4 6 10 25 14
25 6z m-23 -338 c-3 -8 -6 -5 -6 6 -1 11 2 17 5 13 3 -3 4 -12 1 -19z"/>
<path d="M3713 5209 c-12 -12 -6 -39 11 -51 19 -13 63 -9 76 7 28 34 -55 76
-87 44z"/>
<path d="M3583 5101 c-10 -10 -28 -22 -40 -25 -32 -10 -28 -28 8 -49 30 -17
33 -17 58 0 14 10 38 23 54 30 32 14 35 38 8 53 -30 16 -68 12 -88 -9z"/>
<path d="M3430 5090 c0 -11 5 -18 10 -15 6 3 10 1 10 -5 0 -14 39 -3 60 16 12
12 10 14 -17 14 -17 0 -38 3 -47 6 -12 4 -16 0 -16 -16z"/>
<path d="M3700 5064 c-12 -14 -12 -18 5 -30 38 -28 99 -10 79 23 -15 24 -67
29 -84 7z"/>
<path d="M3910 5045 c-19 -23 5 -45 48 -45 33 0 34 1 19 18 -10 10 -17 24 -17
30 0 17 -35 15 -50 -3z"/>
<path d="M3396 5008 c-19 -17 -23 -27 -16 -38 8 -12 13 -13 27 -2 10 7 30 18
45 25 22 10 25 16 16 25 -18 18 -44 14 -72 -10z"/>
<path d="M3954 4965 c-4 -8 1 -27 11 -41 13 -20 23 -25 48 -22 38 4 47 30 21
59 -20 23 -72 25 -80 4z"/>
<path d="M4030 4780 c0 -11 4 -20 8 -20 5 0 17 9 27 20 18 20 17 20 -8 20 -20
0 -27 -5 -27 -20z"/>
<path d="M4094 4784 c3 -9 9 -27 13 -41 6 -25 5 -26 -28 -18 -19 5 -49 8 -68
7 -18 0 -44 6 -56 14 -20 13 -27 13 -44 2 -26 -16 -27 -28 -3 -28 13 -1 10 -6
-13 -25 -37 -30 -45 -31 -52 -4 -4 14 -11 18 -22 14 -102 -41 -201 -62 -384
-81 l-57 -5 21 -27 21 -27 -24 -6 c-26 -8 -78 -11 -78 -5 0 2 6 19 14 37 l14
34 -85 12 c-47 7 -92 18 -99 24 -8 6 -14 7 -14 2 0 -13 44 -53 58 -53 7 0 12
-5 12 -10 0 -6 18 -35 40 -65 23 -31 50 -81 62 -113 12 -31 24 -61 28 -65 4
-4 48 17 98 48 50 30 119 65 153 78 49 17 64 28 71 49 11 32 20 34 42 13 16
-16 56 -21 56 -6 0 5 -7 14 -15 21 -23 19 -18 37 10 42 31 6 38 -3 29 -37 -7
-29 -10 -28 91 -14 80 11 172 2 285 -27 70 -18 66 -19 79 17 15 44 14 77 -5
132 -11 33 -21 47 -37 49 -14 2 -21 9 -19 20 3 21 -44 58 -75 58 -19 0 -24 -4
-19 -16z m-146 -152 c4 -37 -10 -41 -47 -16 l-24 17 24 18 c31 24 43 19 47
-19z m-364 -83 c14 -11 26 -24 26 -28 0 -6 -63 -41 -75 -41 -7 0 -6 41 1 68 8
27 14 28 48 1z"/>
<path d="M3887 4433 c-4 -3 -7 -15 -7 -25 0 -14 8 -18 34 -18 39 0 53 14 36
35 -13 15 -51 20 -63 8z"/>
<path d="M3809 4344 c-11 -14 -10 -18 6 -30 23 -17 35 -17 59 1 16 12 17 17 6
30 -16 20 -54 19 -71 -1z"/>
<path d="M3643 4328 c-16 -26 -33 -60 -33 -68 0 -15 39 -21 60 -10 11 6 20 19
20 28 0 10 5 23 11 29 6 6 8 16 5 22 -10 15 -53 14 -63 -1z"/>
<path d="M4177 4313 c-4 -3 -19 -8 -33 -9 -33 -4 -48 -18 -41 -38 7 -18 62
-22 72 -5 4 6 19 7 35 4 36 -8 48 10 24 36 -17 19 -45 25 -57 12z"/>
<path d="M3893 4271 c-9 -12 -26 -21 -36 -21 -13 0 -18 -6 -15 -22 4 -31 67
-40 74 -11 3 10 15 23 27 28 31 14 28 39 -5 43 -18 2 -33 -4 -45 -17z"/>
<path d="M3742 4259 c-32 -12 -23 -33 16 -37 35 -4 56 23 31 39 -17 10 -17 10
-47 -2z"/>
<path d="M4260 4227 c0 -28 17 -47 42 -47 20 0 23 21 8 51 -15 28 -50 25 -50
-4z"/>
<path d="M3602 4178 c-21 -21 -14 -48 13 -48 25 0 51 32 40 50 -8 14 -39 12
-53 -2z"/>
<path d="M3482 4134 c-28 -19 -30 -54 -2 -54 22 0 55 43 45 60 -8 14 -17 13
-43 -6z"/>
<path d="M4183 4073 c-22 -8 -14 -42 13 -59 28 -19 48 -9 42 21 -4 21 -38 45
-55 38z"/>
<path d="M2320 3464 c-14 -2 -61 -9 -105 -15 -134 -18 -198 -79 -162 -154 13
-27 33 -43 99 -76 l82 -41 126 5 c412 17 942 46 947 51 1 1 -6 29 -17 62 -11
32 -24 78 -30 101 -19 78 10 73 -478 72 -240 -1 -448 -3 -462 -5z"/>
<path d="M4188 3400 c-103 -39 -211 -59 -280 -53 -50 5 -64 1 -132 -31 -88
-43 -99 -62 -28 -52 26 3 94 10 152 16 187 18 344 44 365 60 6 4 24 11 40 14
43 9 95 43 95 61 0 27 -122 19 -212 -15z"/>
<path d="M3500 3262 c0 -10 7 -19 15 -19 17 0 17 0 9 21 -8 22 -24 20 -24 -2z"/>
<path d="M3475 3123 c4 -21 16 -51 28 -67 19 -27 21 -28 28 -10 14 34 9 63
-13 89 -33 38 -52 33 -43 -12z"/>
<path d="M2650 3120 c-253 -7 -285 -13 -297 -58 -5 -23 20 -158 37 -192 4 -8
18 -42 30 -75 13 -33 33 -82 45 -110 13 -27 32 -79 43 -115 11 -36 28 -87 37
-115 8 -27 23 -75 31 -105 20 -75 103 -321 115 -342 5 -10 9 -25 9 -33 0 -8 4
-23 10 -33 5 -9 16 -37 24 -62 45 -140 171 -421 206 -458 11 -11 20 -25 20
-30 0 -12 68 -48 75 -40 8 8 -123 523 -145 573 -4 11 -13 40 -19 65 -6 25 -18
70 -27 100 -8 30 -41 159 -74 285 -32 127 -66 257 -76 290 -10 37 -17 97 -18
156 -1 85 2 99 23 131 14 19 41 44 60 54 20 10 38 21 41 24 3 3 57 19 120 34
139 34 162 48 99 58 -24 3 -64 6 -89 5 -25 0 -151 -4 -280 -7z"/>
<path d="M3182 3058 c-15 -15 52 -144 79 -151 24 -6 24 2 2 33 -10 14 -30 48
-44 77 -19 40 -28 50 -37 41z"/>
<path d="M2900 2874 c0 -11 74 -104 82 -104 18 0 6 28 -31 68 -37 40 -51 50
-51 36z"/>
<path d="M2895 2468 c-87 -71 -108 -115 -65 -138 23 -12 86 14 139 60 l34 29
-15 38 c-20 49 -43 52 -93 11z"/>
<path d="M3089 2134 c-21 -26 -64 -95 -72 -116 -8 -23 22 -24 63 -3 43 22 52
45 37 95 -11 40 -13 41 -28 24z"/>
<path d="M3014 1215 c-9 -22 -1 -63 45 -240 59 -222 99 -331 139 -373 7 -8 30
-16 51 -19 36 -5 41 -3 56 28 35 66 -5 227 -98 402 -62 116 -86 150 -132 187
-43 34 -53 36 -61 15z"/>
</g>
</svg>
